<svg width="28" height="30" viewBox="0 0 28 30" fill="none" xmlns="http://www.w3.org/2000/svg">
<path d="M14 13.3333C15.5823 13.3333 17.129 12.9423 18.4446 12.2098C19.7602 11.4773 20.7855 10.4361 21.391 9.21789C21.9965 7.99972 22.155 6.65927 21.8463 5.36607C21.5376 4.07286 20.7757 2.88497 19.6569 1.95262C18.538 1.02027 17.1126 0.385336 15.5607 0.128101C14.0089 -0.129134 12.4003 0.00288854 10.9385 0.507473C9.47672 1.01206 8.22729 1.86654 7.34824 2.96287C6.46919 4.0592 6 5.34813 6 6.66667C6 8.43478 6.84285 10.1305 8.34315 11.3807C9.84344 12.631 11.8783 13.3333 14 13.3333ZM26 30C26.5304 30 27.0391 29.8244 27.4142 29.5119C27.7893 29.1993 28 28.7754 28 28.3333C28 25.2391 26.525 22.2717 23.8995 20.0838C21.274 17.8958 17.713 16.6667 14 16.6667C10.287 16.6667 6.72601 17.8958 4.1005 20.0838C1.475 22.2717 5.53285e-08 25.2391 0 28.3333C0 28.7754 0.210714 29.1993 0.585787 29.5119C0.96086 29.8244 1.46957 30 2 30H26Z" fill="white"/>
</svg>
